<svg width="32" height="32" viewBox="0 0 32 32" fill="#425D43" xmlns="http://www.w3.org/2000/svg">
<title>TikTok</title>
<circle cx="17" cy="17" r="11" fill="white"/>
<circle cx="16" cy="16" r="16" />
<rect width="16" height="16" transform="translate(8 8)" />
<path fill-rule="evenodd" clip-rule="evenodd" d="M12.8235 20.441C13.1404 20.6082 13.4932 20.6955 13.8514 20.6953C15.0446 20.6953 16.0186 19.7462 16.0626 18.5633L16.067 8H18.7025C18.7028 8.22436 18.7236 8.44823 18.7648 8.66877H16.8351V8.66914H19.471C19.4706 9.55321 19.791 10.4074 20.3728 11.0731L20.3736 11.0739C20.967 11.4616 21.6607 11.6677 22.3696 11.6671V12.2541C22.6177 12.3072 22.8742 12.3355 23.1381 12.3355V14.9717C21.8222 14.9733 20.5393 14.5607 19.471 13.7925V19.1489C19.471 21.8236 17.2946 24 14.6195 24C13.9534 24.0002 13.2943 23.8627 12.6837 23.5963C12.0736 23.3301 11.525 22.9408 11.0722 22.4528L11.0712 22.4521C9.82012 21.5737 9 20.1211 9 18.4801C9 15.805 11.1764 13.6283 13.8514 13.6283C14.0702 13.6294 14.2886 13.6453 14.5052 13.676V14.3C14.5204 14.2997 14.5356 14.2992 14.5508 14.2987C14.5736 14.2979 14.5964 14.2971 14.6195 14.2971C14.8383 14.2981 15.0567 14.3141 15.2733 14.3447V17.0356C15.0666 16.9707 14.8478 16.933 14.6195 16.933C14.0321 16.9337 13.4689 17.1674 13.0535 17.5828C12.6381 17.9982 12.4045 18.5615 12.404 19.1489C12.404 19.6129 12.5506 20.065 12.823 20.4407L12.8235 20.441ZM10.0881 20.8799C10.3133 21.4665 10.6493 21.9987 11.0701 22.451C10.6407 21.9914 10.3091 21.457 10.0881 20.8799Z" fill="white"/>
</svg>
